<?xml version="1.0" encoding="us-ascii" standalone="no"?><svg xmlns="http://www.w3.org/2000/svg" xmlns:xlink="http://www.w3.org/1999/xlink" contentStyleType="text/css" height="1061px" preserveAspectRatio="none" style="width:2852px;height:1061px;background:#FFFFFF;" version="1.1" viewBox="0 0 2852 1061" width="2852px" zoomAndPan="magnify"><defs/><g><!--cluster arbeitszeiterfassung--><g id="cluster_arbeitszeiterfassung"><path d="M486.5,330 L657.5,330 A3.75,3.75 0 0 1 660,332.5 L667,352.2969 L2664.5,352.2969 A2.5,2.5 0 0 1 2667,354.7969 L2667,1052 A2.5,2.5 0 0 1 2664.5,1054.5 L486.5,1054.5 A2.5,2.5 0 0 1 484,1052 L484,332.5 A2.5,2.5 0 0 1 486.5,330 " fill="none" style="stroke:#000000;stroke-width:1.5;"/><line style="stroke:#000000;stroke-width:1.5;" x1="484" x2="667" y1="352.2969" y2="352.2969"/><text fill="#000000" font-family="sans-serif" font-size="14" font-weight="bold" lengthAdjust="spacing" textLength="170" x="488" y="344.9951">arbeitszeiterfassung</text></g><!--cluster json.dart--><g id="cluster_json.dart"><path d="M1057.5,685.5 L1132.5,685.5 A3.75,3.75 0 0 1 1135,688 L1142,707.7969 L1732.5,707.7969 A2.5,2.5 0 0 1 1735,710.2969 L1735,1028 A2.5,2.5 0 0 1 1732.5,1030.5 L1057.5,1030.5 A2.5,2.5 0 0 1 1055,1028 L1055,688 A2.5,2.5 0 0 1 1057.5,685.5 " fill="none" style="stroke:#000000;stroke-width:1.5;"/><line style="stroke:#000000;stroke-width:1.5;" x1="1055" x2="1142" y1="707.7969" y2="707.7969"/><text fill="#000000" font-family="sans-serif" font-size="14" font-weight="bold" lengthAdjust="spacing" textLength="74" x="1059" y="700.4951">json.dart</text></g><!--cluster login.dart--><g id="cluster_login.dart"><path d="M1976.5,430 L2057.5,430 A3.75,3.75 0 0 1 2060,432.5 L2067,452.2969 L2640.5,452.2969 A2.5,2.5 0 0 1 2643,454.7969 L2643,591.5 A2.5,2.5 0 0 1 2640.5,594 L1976.5,594 A2.5,2.5 0 0 1 1974,591.5 L1974,432.5 A2.5,2.5 0 0 1 1976.5,430 " fill="none" style="stroke:#000000;stroke-width:1.5;"/><line style="stroke:#000000;stroke-width:1.5;" x1="1974" x2="2067" y1="452.2969" y2="452.2969"/><text fill="#000000" font-family="sans-serif" font-size="14" font-weight="bold" lengthAdjust="spacing" textLength="80" x="1978" y="444.9951">login.dart</text></g><!--cluster main.dart--><g id="cluster_main.dart"><path d="M1399.5,454.5 L1480.5,454.5 A3.75,3.75 0 0 1 1483,457 L1490,476.7969 L1947.5,476.7969 A2.5,2.5 0 0 1 1950,479.2969 L1950,567 A2.5,2.5 0 0 1 1947.5,569.5 L1399.5,569.5 A2.5,2.5 0 0 1 1397,567 L1397,457 A2.5,2.5 0 0 1 1399.5,454.5 " fill="none" style="stroke:#000000;stroke-width:1.5;"/><line style="stroke:#000000;stroke-width:1.5;" x1="1397" x2="1490" y1="476.7969" y2="476.7969"/><text fill="#000000" font-family="sans-serif" font-size="14" font-weight="bold" lengthAdjust="spacing" textLength="80" x="1401" y="469.4951">main.dart</text></g><!--cluster workedModel.dart--><g id="cluster_workedModel.dart"><path d="M510.5,677.5 L657.5,677.5 A3.75,3.75 0 0 1 660,680 L667,699.7969 L1028.5,699.7969 A2.5,2.5 0 0 1 1031,702.2969 L1031,855 A2.5,2.5 0 0 1 1028.5,857.5 L510.5,857.5 A2.5,2.5 0 0 1 508,855 L508,680 A2.5,2.5 0 0 1 510.5,677.5 " fill="none" style="stroke:#000000;stroke-width:1.5;"/><line style="stroke:#000000;stroke-width:1.5;" x1="508" x2="667" y1="699.7969" y2="699.7969"/><text fill="#000000" font-family="sans-serif" font-size="14" font-weight="bold" lengthAdjust="spacing" textLength="146" x="512" y="692.4951">workedModel.dart</text></g><!--cluster workingTime.dart--><g id="cluster_workingTime.dart"><path d="M510.5,373 L655.5,373 A3.75,3.75 0 0 1 658,375.5 L665,395.2969 L1370.5,395.2969 A2.5,2.5 0 0 1 1373,397.7969 L1373,648.5 A2.5,2.5 0 0 1 1370.5,651 L510.5,651 A2.5,2.5 0 0 1 508,648.5 L508,375.5 A2.5,2.5 0 0 1 510.5,373 " fill="none" style="stroke:#000000;stroke-width:1.5;"/><line style="stroke:#000000;stroke-width:1.5;" x1="508" x2="665" y1="395.2969" y2="395.2969"/><text fill="#000000" font-family="sans-serif" font-size="14" font-weight="bold" lengthAdjust="spacing" textLength="144" x="512" y="387.9951">workingTime.dart</text></g><!--cluster flutter--><g id="cluster_flutter"><path d="M1521.5,6 L1576.5,6 A3.75,3.75 0 0 1 1579,8.5 L1586,28.2969 L2426.5,28.2969 A2.5,2.5 0 0 1 2429,30.7969 L2429,303.5 A2.5,2.5 0 0 1 2426.5,306 L1521.5,306 A2.5,2.5 0 0 1 1519,303.5 L1519,8.5 A2.5,2.5 0 0 1 1521.5,6 " fill="none" style="stroke:#000000;stroke-width:1.5;"/><line style="stroke:#000000;stroke-width:1.5;" x1="1519" x2="1586" y1="28.2969" y2="28.2969"/><text fill="#000000" font-family="sans-serif" font-size="14" font-weight="bold" lengthAdjust="spacing" textLength="54" x="1523" y="20.9951">flutter</text></g><!--cluster src--><g id="cluster_src"><path d="M1545.5,49 L1571.5,49 A3.75,3.75 0 0 1 1574,51.5 L1581,71.2969 L2402.5,71.2969 A2.5,2.5 0 0 1 2405,73.7969 L2405,279.5 A2.5,2.5 0 0 1 2402.5,282 L1545.5,282 A2.5,2.5 0 0 1 1543,279.5 L1543,51.5 A2.5,2.5 0 0 1 1545.5,49 " fill="none" style="stroke:#000000;stroke-width:1.5;"/><line style="stroke:#000000;stroke-width:1.5;" x1="1543" x2="1581" y1="71.2969" y2="71.2969"/><text fill="#000000" font-family="sans-serif" font-size="14" font-weight="bold" lengthAdjust="spacing" textLength="25" x="1547" y="63.9951">src</text></g><!--cluster widgets--><g id="cluster_widgets"><path d="M1569.5,92 L1634.5,92 A3.75,3.75 0 0 1 1637,94.5 L1644,114.2969 L2378.5,114.2969 A2.5,2.5 0 0 1 2381,116.7969 L2381,255.5 A2.5,2.5 0 0 1 2378.5,258 L1569.5,258 A2.5,2.5 0 0 1 1567,255.5 L1567,94.5 A2.5,2.5 0 0 1 1569.5,92 " fill="none" style="stroke:#000000;stroke-width:1.5;"/><line style="stroke:#000000;stroke-width:1.5;" x1="1567" x2="1644" y1="114.2969" y2="114.2969"/><text fill="#000000" font-family="sans-serif" font-size="14" font-weight="bold" lengthAdjust="spacing" textLength="64" x="1571" y="106.9951">widgets</text></g><!--cluster editable_text.dart--><g id="cluster_editable_text.dart"><path d="M2137.5,135 L2285.5,135 A3.75,3.75 0 0 1 2288,137.5 L2295,157.2969 L2354.5,157.2969 A2.5,2.5 0 0 1 2357,159.7969 L2357,231.5 A2.5,2.5 0 0 1 2354.5,234 L2137.5,234 A2.5,2.5 0 0 1 2135,231.5 L2135,137.5 A2.5,2.5 0 0 1 2137.5,135 " fill="none" style="stroke:#000000;stroke-width:1.5;"/><line style="stroke:#000000;stroke-width:1.5;" x1="2135" x2="2295" y1="157.2969" y2="157.2969"/><text fill="#000000" font-family="sans-serif" font-size="14" font-weight="bold" lengthAdjust="spacing" textLength="147" x="2139" y="149.9951">editable_text.dart</text></g><!--cluster framework.dart--><g id="cluster_framework.dart"><path d="M1593.5,135 L1721.5,135 A3.75,3.75 0 0 1 1724,137.5 L1731,157.2969 L2108.5,157.2969 A2.5,2.5 0 0 1 2111,159.7969 L2111,231.5 A2.5,2.5 0 0 1 2108.5,234 L1593.5,234 A2.5,2.5 0 0 1 1591,231.5 L1591,137.5 A2.5,2.5 0 0 1 1593.5,135 " fill="none" style="stroke:#000000;stroke-width:1.5;"/><line style="stroke:#000000;stroke-width:1.5;" x1="1591" x2="1731" y1="157.2969" y2="157.2969"/><text fill="#000000" font-family="sans-serif" font-size="14" font-weight="bold" lengthAdjust="spacing" textLength="127" x="1595" y="149.9951">framework.dart</text></g><!--cluster fwidget--><g id="cluster_fwidget"><path d="M8.5,376.5 L71.5,376.5 A3.75,3.75 0 0 1 74,379 L81,398.7969 L457.5,398.7969 A2.5,2.5 0 0 1 460,401.2969 L460,607 A2.5,2.5 0 0 1 457.5,609.5 L8.5,609.5 A2.5,2.5 0 0 1 6,607 L6,379 A2.5,2.5 0 0 1 8.5,376.5 " fill="none" style="stroke:#000000;stroke-width:1.5;"/><line style="stroke:#000000;stroke-width:1.5;" x1="6" x2="81" y1="398.7969" y2="398.7969"/><text fill="#000000" font-family="sans-serif" font-size="14" font-weight="bold" lengthAdjust="spacing" textLength="62" x="10" y="391.4951">fwidget</text></g><!--cluster widgets--><g id="cluster_widgets"><path d="M248.5,419.5 L313.5,419.5 A3.75,3.75 0 0 1 316,422 L323,441.7969 L433.5,441.7969 A2.5,2.5 0 0 1 436,444.2969 L436,583 A2.5,2.5 0 0 1 433.5,585.5 L248.5,585.5 A2.5,2.5 0 0 1 246,583 L246,422 A2.5,2.5 0 0 1 248.5,419.5 " fill="none" style="stroke:#000000;stroke-width:1.5;"/><line style="stroke:#000000;stroke-width:1.5;" x1="246" x2="323" y1="441.7969" y2="441.7969"/><text fill="#000000" font-family="sans-serif" font-size="14" font-weight="bold" lengthAdjust="spacing" textLength="64" x="250" y="434.4951">widgets</text></g><!--cluster table.dart--><g id="cluster_table.dart"><path d="M272.5,462.5 L355.5,462.5 A3.75,3.75 0 0 1 358,465 L365,484.7969 L409.5,484.7969 A2.5,2.5 0 0 1 412,487.2969 L412,559 A2.5,2.5 0 0 1 409.5,561.5 L272.5,561.5 A2.5,2.5 0 0 1 270,559 L270,465 A2.5,2.5 0 0 1 272.5,462.5 " fill="none" style="stroke:#000000;stroke-width:1.5;"/><line style="stroke:#000000;stroke-width:1.5;" x1="270" x2="365" y1="484.7969" y2="484.7969"/><text fill="#000000" font-family="sans-serif" font-size="14" font-weight="bold" lengthAdjust="spacing" textLength="82" x="274" y="477.4951">table.dart</text></g><!--cluster helpers--><g id="cluster_helpers"><path d="M32.5,419.5 L92.5,419.5 A3.75,3.75 0 0 1 95,422 L102,441.7969 L219.5,441.7969 A2.5,2.5 0 0 1 222,444.2969 L222,583 A2.5,2.5 0 0 1 219.5,585.5 L32.5,585.5 A2.5,2.5 0 0 1 30,583 L30,422 A2.5,2.5 0 0 1 32.5,419.5 " fill="none" style="stroke:#000000;stroke-width:1.5;"/><line style="stroke:#000000;stroke-width:1.5;" x1="30" x2="102" y1="441.7969" y2="441.7969"/><text fill="#000000" font-family="sans-serif" font-size="14" font-weight="bold" lengthAdjust="spacing" textLength="59" x="34" y="434.4951">helpers</text></g><!--cluster cloneable.dart--><g id="cluster_cloneable.dart"><path d="M56.5,462.5 L174.5,462.5 A3.75,3.75 0 0 1 177,465 L184,484.7969 L195.5,484.7969 A2.5,2.5 0 0 1 198,487.2969 L198,559 A2.5,2.5 0 0 1 195.5,561.5 L56.5,561.5 A2.5,2.5 0 0 1 54,559 L54,465 A2.5,2.5 0 0 1 56.5,462.5 " fill="none" style="stroke:#000000;stroke-width:1.5;"/><line style="stroke:#000000;stroke-width:1.5;" x1="54" x2="184" y1="484.7969" y2="484.7969"/><text fill="#000000" font-family="sans-serif" font-size="14" font-weight="bold" lengthAdjust="spacing" textLength="117" x="58" y="477.4951">cloneable.dart</text></g><!--cluster dart--><g id="cluster_dart"><path d="M2693.5,675 L2729.5,675 A3.75,3.75 0 0 1 2732,677.5 L2739,697.2969 L2842.5,697.2969 A2.5,2.5 0 0 1 2845,699.7969 L2845,838.5 A2.5,2.5 0 0 1 2842.5,841 L2693.5,841 A2.5,2.5 0 0 1 2691,838.5 L2691,677.5 A2.5,2.5 0 0 1 2693.5,675 " fill="none" style="stroke:#000000;stroke-width:1.5;"/><line style="stroke:#000000;stroke-width:1.5;" x1="2691" x2="2739" y1="697.2969" y2="697.2969"/><text fill="#000000" font-family="sans-serif" font-size="14" font-weight="bold" lengthAdjust="spacing" textLength="35" x="2695" y="689.9951">dart</text></g><!--cluster async--><g id="cluster_async"><path d="M2717.5,718 L2765.5,718 A3.75,3.75 0 0 1 2768,720.5 L2775,740.2969 L2818.5,740.2969 A2.5,2.5 0 0 1 2821,742.7969 L2821,814.5 A2.5,2.5 0 0 1 2818.5,817 L2717.5,817 A2.5,2.5 0 0 1 2715,814.5 L2715,720.5 A2.5,2.5 0 0 1 2717.5,718 " fill="none" style="stroke:#000000;stroke-width:1.5;"/><line style="stroke:#000000;stroke-width:1.5;" x1="2715" x2="2775" y1="740.2969" y2="740.2969"/><text fill="#000000" font-family="sans-serif" font-size="14" font-weight="bold" lengthAdjust="spacing" textLength="47" x="2719" y="732.9951">async</text></g><!--class JsonLogin--><g id="elem_JsonLogin"><rect codeLine="3" fill="#F1F1F1" height="113.1875" id="JsonLogin" rx="2.5" ry="2.5" style="stroke:#181818;stroke-width:0.5;" width="363" x="1355.5" y="720.5"/><ellipse cx="1498.75" cy="736.5" fill="#ADD1B2" rx="11" ry="11" style="stroke:#181818;stroke-width:1.0;"/><path d="M1501.0938,732.1719 C1500.1563,731.7344 1499.5625,731.5938 1498.6875,731.5938 C1496.0625,731.5938 1494.0625,733.6719 1494.0625,736.3906 L1494.0625,737.5156 C1494.0625,740.0938 1496.1719,741.9844 1499.0625,741.9844 C1500.2813,741.9844 1501.4375,741.6875 1502.1875,741.1406 C1502.7656,740.7344 1503.0938,740.2813 1503.0938,739.8906 C1503.0938,739.4375 1502.7031,739.0469 1502.2344,739.0469 C1502.0156,739.0469 1501.8125,739.125 1501.625,739.3125 C1501.1719,739.7969 1501.1719,739.7969 1500.9844,739.8906 C1500.5625,740.1563 1499.875,740.2813 1499.1094,740.2813 C1497.0625,740.2813 1495.7656,739.1875 1495.7656,737.4844 L1495.7656,736.3906 C1495.7656,734.6094 1497.0156,733.2969 1498.75,733.2969 C1499.3281,733.2969 1499.9375,733.4531 1500.4063,733.7031 C1500.8906,733.9844 1501.0625,734.2031 1501.1563,734.6094 C1501.2188,735.0156 1501.25,735.1406 1501.3906,735.2656 C1501.5313,735.4063 1501.7656,735.5156 1501.9844,735.5156 C1502.25,735.5156 1502.5156,735.375 1502.6875,735.1563 C1502.7969,735 1502.8281,734.8125 1502.8281,734.3906 L1502.8281,732.9688 C1502.8281,732.5313 1502.8125,732.4063 1502.7188,732.25 C1502.5625,731.9844 1502.2813,731.8438 1501.9844,731.8438 C1501.6875,731.8438 1501.4844,731.9375 1501.2656,732.25 L1501.0938,732.1719 Z " fill="#000000"/><text fill="#000000" font-family="sans-serif" font-size="14" lengthAdjust="spacing" textLength="68" x="1519.25" y="741.3467">JsonLogin</text><line style="stroke:#181818;stroke-width:0.5;" x1="1356.5" x2="1717.5" y1="752.5" y2="752.5"/><ellipse cx="1366.5" cy="766.1484" fill="none" rx="3" ry="3" style="stroke:#038048;stroke-width:1.0;"/><text fill="#000000" font-family="sans-serif" font-size="14" lengthAdjust="spacing" textLength="118" x="1375.5" y="769.4951">String username</text><ellipse cx="1366.5" cy="782.4453" fill="none" rx="3" ry="3" style="stroke:#038048;stroke-width:1.0;"/><text fill="#000000" font-family="sans-serif" font-size="14" lengthAdjust="spacing" textLength="126" x="1375.5" y="785.792">String sessionkey</text><ellipse cx="1366.5" cy="798.7422" fill="none" rx="3" ry="3" style="stroke:#038048;stroke-width:1.0;"/><text fill="#000000" font-family="sans-serif" font-size="14" lengthAdjust="spacing" textLength="337" x="1375.5" y="802.0889">List&lt;Dayandworkedtime&gt; dayandworkedtimes</text><line style="stroke:#181818;stroke-width:0.5;" x1="1356.5" x2="1717.5" y1="809.3906" y2="809.3906"/><ellipse cx="1366.5" cy="823.0391" fill="#84BE84" rx="3" ry="3" style="stroke:#038048;stroke-width:1.0;"/><text fill="#000000" font-family="sans-serif" font-size="14" lengthAdjust="spacing" textLength="223" x="1375.5" y="826.3857">Map&lt;String, dynamic&gt; toJson()</text></g><!--class Dayandworkedtime--><g id="elem_Dayandworkedtime"><rect codeLine="10" fill="#F1F1F1" height="96.8906" id="Dayandworkedtime" rx="2.5" ry="2.5" style="stroke:#181818;stroke-width:0.5;" width="249" x="1071.5" y="728.5"/><ellipse cx="1121.75" cy="744.5" fill="#ADD1B2" rx="11" ry="11" style="stroke:#181818;stroke-width:1.0;"/><path d="M1124.0938,740.1719 C1123.1563,739.7344 1122.5625,739.5938 1121.6875,739.5938 C1119.0625,739.5938 1117.0625,741.6719 1117.0625,744.3906 L1117.0625,745.5156 C1117.0625,748.0938 1119.1719,749.9844 1122.0625,749.9844 C1123.2813,749.9844 1124.4375,749.6875 1125.1875,749.1406 C1125.7656,748.7344 1126.0938,748.2813 1126.0938,747.8906 C1126.0938,747.4375 1125.7031,747.0469 1125.2344,747.0469 C1125.0156,747.0469 1124.8125,747.125 1124.625,747.3125 C1124.1719,747.7969 1124.1719,747.7969 1123.9844,747.8906 C1123.5625,748.1563 1122.875,748.2813 1122.1094,748.2813 C1120.0625,748.2813 1118.7656,747.1875 1118.7656,745.4844 L1118.7656,744.3906 C1118.7656,742.6094 1120.0156,741.2969 1121.75,741.2969 C1122.3281,741.2969 1122.9375,741.4531 1123.4063,741.7031 C1123.8906,741.9844 1124.0625,742.2031 1124.1563,742.6094 C1124.2188,743.0156 1124.25,743.1406 1124.3906,743.2656 C1124.5313,743.4063 1124.7656,743.5156 1124.9844,743.5156 C1125.25,743.5156 1125.5156,743.375 1125.6875,743.1563 C1125.7969,743 1125.8281,742.8125 1125.8281,742.3906 L1125.8281,740.9688 C1125.8281,740.5313 1125.8125,740.4063 1125.7188,740.25 C1125.5625,739.9844 1125.2813,739.8438 1124.9844,739.8438 C1124.6875,739.8438 1124.4844,739.9375 1124.2656,740.25 L1124.0938,740.1719 Z " fill="#000000"/><text fill="#000000" font-family="sans-serif" font-size="14" lengthAdjust="spacing" textLength="140" x="1142.25" y="749.3467">Dayandworkedtime</text><line style="stroke:#181818;stroke-width:0.5;" x1="1072.5" x2="1319.5" y1="760.5" y2="760.5"/><ellipse cx="1082.5" cy="774.1484" fill="none" rx="3" ry="3" style="stroke:#038048;stroke-width:1.0;"/><text fill="#000000" font-family="sans-serif" font-size="14" lengthAdjust="spacing" textLength="124" x="1091.5" y="777.4951">WorkingDate day</text><ellipse cx="1082.5" cy="790.4453" fill="none" rx="3" ry="3" style="stroke:#038048;stroke-width:1.0;"/><text fill="#000000" font-family="sans-serif" font-size="14" lengthAdjust="spacing" textLength="125" x="1091.5" y="793.792">String hasworked</text><line style="stroke:#181818;stroke-width:0.5;" x1="1072.5" x2="1319.5" y1="801.0938" y2="801.0938"/><ellipse cx="1082.5" cy="814.7422" fill="#84BE84" rx="3" ry="3" style="stroke:#038048;stroke-width:1.0;"/><text fill="#000000" font-family="sans-serif" font-size="14" lengthAdjust="spacing" textLength="223" x="1091.5" y="818.0889">Map&lt;String, dynamic&gt; toJson()</text></g><!--class WorkingDate--><g id="elem_WorkingDate"><rect codeLine="18" fill="#F1F1F1" height="113.1875" id="WorkingDate" rx="2.5" ry="2.5" style="stroke:#181818;stroke-width:0.5;" width="249" x="1071.5" y="901.5"/><ellipse cx="1144.25" cy="917.5" fill="#ADD1B2" rx="11" ry="11" style="stroke:#181818;stroke-width:1.0;"/><path d="M1146.5938,913.1719 C1145.6563,912.7344 1145.0625,912.5938 1144.1875,912.5938 C1141.5625,912.5938 1139.5625,914.6719 1139.5625,917.3906 L1139.5625,918.5156 C1139.5625,921.0938 1141.6719,922.9844 1144.5625,922.9844 C1145.7813,922.9844 1146.9375,922.6875 1147.6875,922.1406 C1148.2656,921.7344 1148.5938,921.2813 1148.5938,920.8906 C1148.5938,920.4375 1148.2031,920.0469 1147.7344,920.0469 C1147.5156,920.0469 1147.3125,920.125 1147.125,920.3125 C1146.6719,920.7969 1146.6719,920.7969 1146.4844,920.8906 C1146.0625,921.1563 1145.375,921.2813 1144.6094,921.2813 C1142.5625,921.2813 1141.2656,920.1875 1141.2656,918.4844 L1141.2656,917.3906 C1141.2656,915.6094 1142.5156,914.2969 1144.25,914.2969 C1144.8281,914.2969 1145.4375,914.4531 1145.9063,914.7031 C1146.3906,914.9844 1146.5625,915.2031 1146.6563,915.6094 C1146.7188,916.0156 1146.75,916.1406 1146.8906,916.2656 C1147.0313,916.4063 1147.2656,916.5156 1147.4844,916.5156 C1147.75,916.5156 1148.0156,916.375 1148.1875,916.1563 C1148.2969,916 1148.3281,915.8125 1148.3281,915.3906 L1148.3281,913.9688 C1148.3281,913.5313 1148.3125,913.4063 1148.2188,913.25 C1148.0625,912.9844 1147.7813,912.8438 1147.4844,912.8438 C1147.1875,912.8438 1146.9844,912.9375 1146.7656,913.25 L1146.5938,913.1719 Z " fill="#000000"/><text fill="#000000" font-family="sans-serif" font-size="14" lengthAdjust="spacing" textLength="95" x="1164.75" y="922.3467">WorkingDate</text><line style="stroke:#181818;stroke-width:0.5;" x1="1072.5" x2="1319.5" y1="933.5" y2="933.5"/><ellipse cx="1082.5" cy="947.1484" fill="none" rx="3" ry="3" style="stroke:#038048;stroke-width:1.0;"/><text fill="#000000" font-family="sans-serif" font-size="14" lengthAdjust="spacing" textLength="55" x="1091.5" y="950.4951">int year</text><ellipse cx="1082.5" cy="963.4453" fill="none" rx="3" ry="3" style="stroke:#038048;stroke-width:1.0;"/><text fill="#000000" font-family="sans-serif" font-size="14" lengthAdjust="spacing" textLength="72" x="1091.5" y="966.792">int month</text><ellipse cx="1082.5" cy="979.7422" fill="none" rx="3" ry="3" style="stroke:#038048;stroke-width:1.0;"/><text fill="#000000" font-family="sans-serif" font-size="14" lengthAdjust="spacing" textLength="49" x="1091.5" y="983.0889">int day</text><line style="stroke:#181818;stroke-width:0.5;" x1="1072.5" x2="1319.5" y1="990.3906" y2="990.3906"/><ellipse cx="1082.5" cy="1004.0391" fill="#84BE84" rx="3" ry="3" style="stroke:#038048;stroke-width:1.0;"/><text fill="#000000" font-family="sans-serif" font-size="14" lengthAdjust="spacing" textLength="223" x="1091.5" y="1007.3857">Map&lt;String, dynamic&gt; toJson()</text></g><!--class LogIn--><g id="elem_LogIn"><rect codeLine="25" fill="#F1F1F1" height="113.1875" id="LogIn" rx="2.5" ry="2.5" style="stroke:#181818;stroke-width:0.5;" width="330" x="2297" y="465"/><ellipse cx="2438.25" cy="481" fill="#ADD1B2" rx="11" ry="11" style="stroke:#181818;stroke-width:1.0;"/><path d="M2440.5938,476.6719 C2439.6563,476.2344 2439.0625,476.0938 2438.1875,476.0938 C2435.5625,476.0938 2433.5625,478.1719 2433.5625,480.8906 L2433.5625,482.0156 C2433.5625,484.5938 2435.6719,486.4844 2438.5625,486.4844 C2439.7813,486.4844 2440.9375,486.1875 2441.6875,485.6406 C2442.2656,485.2344 2442.5938,484.7813 2442.5938,484.3906 C2442.5938,483.9375 2442.2031,483.5469 2441.7344,483.5469 C2441.5156,483.5469 2441.3125,483.625 2441.125,483.8125 C2440.6719,484.2969 2440.6719,484.2969 2440.4844,484.3906 C2440.0625,484.6563 2439.375,484.7813 2438.6094,484.7813 C2436.5625,484.7813 2435.2656,483.6875 2435.2656,481.9844 L2435.2656,480.8906 C2435.2656,479.1094 2436.5156,477.7969 2438.25,477.7969 C2438.8281,477.7969 2439.4375,477.9531 2439.9063,478.2031 C2440.3906,478.4844 2440.5625,478.7031 2440.6563,479.1094 C2440.7188,479.5156 2440.75,479.6406 2440.8906,479.7656 C2441.0313,479.9063 2441.2656,480.0156 2441.4844,480.0156 C2441.75,480.0156 2442.0156,479.875 2442.1875,479.6563 C2442.2969,479.5 2442.3281,479.3125 2442.3281,478.8906 L2442.3281,477.4688 C2442.3281,477.0313 2442.3125,476.9063 2442.2188,476.75 C2442.0625,476.4844 2441.7813,476.3438 2441.4844,476.3438 C2441.1875,476.3438 2440.9844,476.4375 2440.7656,476.75 L2440.5938,476.6719 Z " fill="#000000"/><text fill="#000000" font-family="sans-serif" font-size="14" lengthAdjust="spacing" textLength="39" x="2458.75" y="485.8467">LogIn</text><line style="stroke:#181818;stroke-width:0.5;" x1="2298" x2="2626" y1="497" y2="497"/><ellipse cx="2308" cy="510.6484" fill="none" rx="3" ry="3" style="stroke:#038048;stroke-width:1.0;"/><text fill="#000000" font-family="sans-serif" font-size="14" lengthAdjust="spacing" textLength="304" x="2317" y="513.9951">TextEditingController usernameController</text><ellipse cx="2308" cy="526.9453" fill="none" rx="3" ry="3" style="stroke:#038048;stroke-width:1.0;"/><text fill="#000000" font-family="sans-serif" font-size="14" lengthAdjust="spacing" textLength="301" x="2317" y="530.292">TextEditingController passwordController</text><ellipse cx="2308" cy="543.2422" fill="none" rx="3" ry="3" style="stroke:#038048;stroke-width:1.0;"/><text fill="#000000" font-family="sans-serif" font-size="14" lengthAdjust="spacing" textLength="118" x="2317" y="546.5889">bool notToLogin</text><line style="stroke:#181818;stroke-width:0.5;" x1="2298" x2="2626" y1="553.8906" y2="553.8906"/><ellipse cx="2308" cy="567.5391" fill="#84BE84" rx="3" ry="3" style="stroke:#038048;stroke-width:1.0;"/><text fill="#000000" font-family="sans-serif" font-size="14" lengthAdjust="spacing" textLength="187" x="2317" y="570.8857">_LogInState createState()</text></g><!--class _LogInState--><g id="elem__LogInState"><rect codeLine="35" fill="#F1F1F1" height="113.1875" id="_LogInState" rx="2.5" ry="2.5" style="stroke:#181818;stroke-width:0.5;" width="271" x="1990.5" y="465"/><ellipse cx="2078.75" cy="481" fill="#ADD1B2" rx="11" ry="11" style="stroke:#181818;stroke-width:1.0;"/><path d="M2081.0938,476.6719 C2080.1563,476.2344 2079.5625,476.0938 2078.6875,476.0938 C2076.0625,476.0938 2074.0625,478.1719 2074.0625,480.8906 L2074.0625,482.0156 C2074.0625,484.5938 2076.1719,486.4844 2079.0625,486.4844 C2080.2813,486.4844 2081.4375,486.1875 2082.1875,485.6406 C2082.7656,485.2344 2083.0938,484.7813 2083.0938,484.3906 C2083.0938,483.9375 2082.7031,483.5469 2082.2344,483.5469 C2082.0156,483.5469 2081.8125,483.625 2081.625,483.8125 C2081.1719,484.2969 2081.1719,484.2969 2080.9844,484.3906 C2080.5625,484.6563 2079.875,484.7813 2079.1094,484.7813 C2077.0625,484.7813 2075.7656,483.6875 2075.7656,481.9844 L2075.7656,480.8906 C2075.7656,479.1094 2077.0156,477.7969 2078.75,477.7969 C2079.3281,477.7969 2079.9375,477.9531 2080.4063,478.2031 C2080.8906,478.4844 2081.0625,478.7031 2081.1563,479.1094 C2081.2188,479.5156 2081.25,479.6406 2081.3906,479.7656 C2081.5313,479.9063 2081.7656,480.0156 2081.9844,480.0156 C2082.25,480.0156 2082.5156,479.875 2082.6875,479.6563 C2082.7969,479.5 2082.8281,479.3125 2082.8281,478.8906 L2082.8281,477.4688 C2082.8281,477.0313 2082.8125,476.9063 2082.7188,476.75 C2082.5625,476.4844 2082.2813,476.3438 2081.9844,476.3438 C2081.6875,476.3438 2081.4844,476.4375 2081.2656,476.75 L2081.0938,476.6719 Z " fill="#000000"/><text fill="#000000" font-family="sans-serif" font-size="14" lengthAdjust="spacing" textLength="86" x="2099.25" y="485.8467">_LogInState</text><line style="stroke:#181818;stroke-width:0.5;" x1="1991.5" x2="2260.5" y1="497" y2="497"/><rect fill="none" height="6" style="stroke:#C82930;stroke-width:1.0;" width="6" x="1998.5" y="507.6484"/><text fill="#000000" font-family="sans-serif" font-size="14" lengthAdjust="spacing" textLength="245" x="2010.5" y="513.9951">GlobalKey&lt;FormState&gt; _formKey</text><line style="stroke:#181818;stroke-width:0.5;" x1="1991.5" x2="2260.5" y1="521.2969" y2="521.2969"/><ellipse cx="2001.5" cy="534.9453" fill="#84BE84" rx="3" ry="3" style="stroke:#038048;stroke-width:1.0;"/><text fill="#000000" font-family="sans-serif" font-size="14" lengthAdjust="spacing" textLength="101" x="2010.5" y="538.292">Widget build()</text><ellipse cx="2001.5" cy="551.2422" fill="#84BE84" rx="3" ry="3" style="stroke:#038048;stroke-width:1.0;"/><text fill="#000000" font-family="sans-serif" font-size="14" lengthAdjust="spacing" textLength="147" x="2010.5" y="554.5889">dynamic fetchData()</text><ellipse cx="2001.5" cy="567.5391" fill="#84BE84" rx="3" ry="3" style="stroke:#038048;stroke-width:1.0;"/><text fill="#000000" font-family="sans-serif" font-size="14" lengthAdjust="spacing" textLength="166" x="2010.5" y="570.8857">dynamic popupDialog()</text></g><!--class TimeRecording--><g id="elem_TimeRecording"><rect codeLine="45" fill="#F1F1F1" height="64.2969" id="TimeRecording" rx="2.5" ry="2.5" style="stroke:#181818;stroke-width:0.5;" width="298" x="1636" y="489.5"/><ellipse cx="1726.25" cy="505.5" fill="#ADD1B2" rx="11" ry="11" style="stroke:#181818;stroke-width:1.0;"/><path d="M1728.5938,501.1719 C1727.6563,500.7344 1727.0625,500.5938 1726.1875,500.5938 C1723.5625,500.5938 1721.5625,502.6719 1721.5625,505.3906 L1721.5625,506.5156 C1721.5625,509.0938 1723.6719,510.9844 1726.5625,510.9844 C1727.7813,510.9844 1728.9375,510.6875 1729.6875,510.1406 C1730.2656,509.7344 1730.5938,509.2813 1730.5938,508.8906 C1730.5938,508.4375 1730.2031,508.0469 1729.7344,508.0469 C1729.5156,508.0469 1729.3125,508.125 1729.125,508.3125 C1728.6719,508.7969 1728.6719,508.7969 1728.4844,508.8906 C1728.0625,509.1563 1727.375,509.2813 1726.6094,509.2813 C1724.5625,509.2813 1723.2656,508.1875 1723.2656,506.4844 L1723.2656,505.3906 C1723.2656,503.6094 1724.5156,502.2969 1726.25,502.2969 C1726.8281,502.2969 1727.4375,502.4531 1727.9063,502.7031 C1728.3906,502.9844 1728.5625,503.2031 1728.6563,503.6094 C1728.7188,504.0156 1728.75,504.1406 1728.8906,504.2656 C1729.0313,504.4063 1729.2656,504.5156 1729.4844,504.5156 C1729.75,504.5156 1730.0156,504.375 1730.1875,504.1563 C1730.2969,504 1730.3281,503.8125 1730.3281,503.3906 L1730.3281,501.9688 C1730.3281,501.5313 1730.3125,501.4063 1730.2188,501.25 C1730.0625,500.9844 1729.7813,500.8438 1729.4844,500.8438 C1729.1875,500.8438 1728.9844,500.9375 1728.7656,501.25 L1728.5938,501.1719 Z " fill="#000000"/><text fill="#000000" font-family="sans-serif" font-size="14" lengthAdjust="spacing" textLength="109" x="1746.75" y="510.3467">TimeRecording</text><line style="stroke:#181818;stroke-width:0.5;" x1="1637" x2="1933" y1="521.5" y2="521.5"/><line style="stroke:#181818;stroke-width:0.5;" x1="1637" x2="1933" y1="529.5" y2="529.5"/><ellipse cx="1647" cy="543.1484" fill="#84BE84" rx="3" ry="3" style="stroke:#038048;stroke-width:1.0;"/><text fill="#000000" font-family="sans-serif" font-size="14" lengthAdjust="spacing" textLength="272" x="1656" y="546.4951">State&lt;TimeRecording&gt; createState()</text></g><!--class _TimeRecordingState--><g id="elem__TimeRecordingState"><rect codeLine="51" fill="#F1F1F1" height="64.2969" id="_TimeRecordingState" rx="2.5" ry="2.5" style="stroke:#181818;stroke-width:0.5;" width="188" x="1413" y="489.5"/><ellipse cx="1428" cy="505.5" fill="#ADD1B2" rx="11" ry="11" style="stroke:#181818;stroke-width:1.0;"/><path d="M1430.3438,501.1719 C1429.4063,500.7344 1428.8125,500.5938 1427.9375,500.5938 C1425.3125,500.5938 1423.3125,502.6719 1423.3125,505.3906 L1423.3125,506.5156 C1423.3125,509.0938 1425.4219,510.9844 1428.3125,510.9844 C1429.5313,510.9844 1430.6875,510.6875 1431.4375,510.1406 C1432.0156,509.7344 1432.3438,509.2813 1432.3438,508.8906 C1432.3438,508.4375 1431.9531,508.0469 1431.4844,508.0469 C1431.2656,508.0469 1431.0625,508.125 1430.875,508.3125 C1430.4219,508.7969 1430.4219,508.7969 1430.2344,508.8906 C1429.8125,509.1563 1429.125,509.2813 1428.3594,509.2813 C1426.3125,509.2813 1425.0156,508.1875 1425.0156,506.4844 L1425.0156,505.3906 C1425.0156,503.6094 1426.2656,502.2969 1428,502.2969 C1428.5781,502.2969 1429.1875,502.4531 1429.6563,502.7031 C1430.1406,502.9844 1430.3125,503.2031 1430.4063,503.6094 C1430.4688,504.0156 1430.5,504.1406 1430.6406,504.2656 C1430.7813,504.4063 1431.0156,504.5156 1431.2344,504.5156 C1431.5,504.5156 1431.7656,504.375 1431.9375,504.1563 C1432.0469,504 1432.0781,503.8125 1432.0781,503.3906 L1432.0781,501.9688 C1432.0781,501.5313 1432.0625,501.4063 1431.9688,501.25 C1431.8125,500.9844 1431.5313,500.8438 1431.2344,500.8438 C1430.9375,500.8438 1430.7344,500.9375 1430.5156,501.25 L1430.3438,501.1719 Z " fill="#000000"/><text fill="#000000" font-family="sans-serif" font-size="14" lengthAdjust="spacing" textLength="156" x="1442" y="510.3467">_TimeRecordingState</text><line style="stroke:#181818;stroke-width:0.5;" x1="1414" x2="1600" y1="521.5" y2="521.5"/><line style="stroke:#181818;stroke-width:0.5;" x1="1414" x2="1600" y1="529.5" y2="529.5"/><ellipse cx="1424" cy="543.1484" fill="#84BE84" rx="3" ry="3" style="stroke:#038048;stroke-width:1.0;"/><text fill="#000000" font-family="sans-serif" font-size="14" lengthAdjust="spacing" textLength="101" x="1433" y="546.4951">Widget build()</text></g><!--class FTableRowWorkedModel--><g id="elem_FTableRowWorkedModel"><rect codeLine="57" fill="#F1F1F1" height="129.4844" id="FTableRowWorkedModel" rx="2.5" ry="2.5" style="stroke:#181818;stroke-width:0.5;" width="278" x="737" y="712.5"/><ellipse cx="783.25" cy="728.5" fill="#ADD1B2" rx="11" ry="11" style="stroke:#181818;stroke-width:1.0;"/><path d="M785.5938,724.1719 C784.6563,723.7344 784.0625,723.5938 783.1875,723.5938 C780.5625,723.5938 778.5625,725.6719 778.5625,728.3906 L778.5625,729.5156 C778.5625,732.0938 780.6719,733.9844 783.5625,733.9844 C784.7813,733.9844 785.9375,733.6875 786.6875,733.1406 C787.2656,732.7344 787.5938,732.2813 787.5938,731.8906 C787.5938,731.4375 787.2031,731.0469 786.7344,731.0469 C786.5156,731.0469 786.3125,731.125 786.125,731.3125 C785.6719,731.7969 785.6719,731.7969 785.4844,731.8906 C785.0625,732.1563 784.375,732.2813 783.6094,732.2813 C781.5625,732.2813 780.2656,731.1875 780.2656,729.4844 L780.2656,728.3906 C780.2656,726.6094 781.5156,725.2969 783.25,725.2969 C783.8281,725.2969 784.4375,725.4531 784.9063,725.7031 C785.3906,725.9844 785.5625,726.2031 785.6563,726.6094 C785.7188,727.0156 785.75,727.1406 785.8906,727.2656 C786.0313,727.4063 786.2656,727.5156 786.4844,727.5156 C786.75,727.5156 787.0156,727.375 787.1875,727.1563 C787.2969,727 787.3281,726.8125 787.3281,726.3906 L787.3281,724.9688 C787.3281,724.5313 787.3125,724.4063 787.2188,724.25 C787.0625,723.9844 786.7813,723.8438 786.4844,723.8438 C786.1875,723.8438 785.9844,723.9375 785.7656,724.25 L785.5938,724.1719 Z " fill="#000000"/><text fill="#000000" font-family="sans-serif" font-size="14" lengthAdjust="spacing" textLength="177" x="803.75" y="733.3467">FTableRowWorkedModel</text><line style="stroke:#181818;stroke-width:0.5;" x1="738" x2="1014" y1="744.5" y2="744.5"/><line style="stroke:#181818;stroke-width:0.5;" x1="738" x2="1014" y1="752.5" y2="752.5"/><ellipse cx="748" cy="766.1484" fill="#84BE84" rx="3" ry="3" style="stroke:#038048;stroke-width:1.0;"/><text fill="#000000" font-family="sans-serif" font-size="14" lengthAdjust="spacing" text-decoration="underline" textLength="163" x="757" y="769.4951">List&lt;String&gt; headers()</text><ellipse cx="748" cy="782.4453" fill="#84BE84" rx="3" ry="3" style="stroke:#038048;stroke-width:1.0;"/><text fill="#000000" font-family="sans-serif" font-size="14" lengthAdjust="spacing" textLength="149" x="757" y="785.792">List&lt;Widget&gt; build()</text><ellipse cx="748" cy="798.7422" fill="#84BE84" rx="3" ry="3" style="stroke:#038048;stroke-width:1.0;"/><text fill="#000000" font-family="sans-serif" font-size="14" lengthAdjust="spacing" textLength="134" x="757" y="802.0889">void updateValue()</text><ellipse cx="748" cy="815.0391" fill="#84BE84" rx="3" ry="3" style="stroke:#038048;stroke-width:1.0;"/><text fill="#000000" font-family="sans-serif" font-size="14" lengthAdjust="spacing" textLength="149" x="757" y="818.3857">bool hasSameValue()</text><ellipse cx="748" cy="831.3359" fill="#84BE84" rx="3" ry="3" style="stroke:#038048;stroke-width:1.0;"/><text fill="#000000" font-family="sans-serif" font-size="14" lengthAdjust="spacing" textLength="252" x="757" y="834.6826">FTableRow&lt;WorkedModel&gt; clone()</text></g><!--class WorkedModel--><g id="elem_WorkedModel"><rect codeLine="67" fill="#F1F1F1" height="129.4844" id="WorkedModel" rx="2.5" ry="2.5" style="stroke:#181818;stroke-width:0.5;" width="178" x="524" y="712.5"/><ellipse cx="560.15" cy="728.5" fill="#ADD1B2" rx="11" ry="11" style="stroke:#181818;stroke-width:1.0;"/><path d="M562.4938,724.1719 C561.5563,723.7344 560.9625,723.5938 560.0875,723.5938 C557.4625,723.5938 555.4625,725.6719 555.4625,728.3906 L555.4625,729.5156 C555.4625,732.0938 557.5719,733.9844 560.4625,733.9844 C561.6813,733.9844 562.8375,733.6875 563.5875,733.1406 C564.1656,732.7344 564.4938,732.2813 564.4938,731.8906 C564.4938,731.4375 564.1031,731.0469 563.6344,731.0469 C563.4156,731.0469 563.2125,731.125 563.025,731.3125 C562.5719,731.7969 562.5719,731.7969 562.3844,731.8906 C561.9625,732.1563 561.275,732.2813 560.5094,732.2813 C558.4625,732.2813 557.1656,731.1875 557.1656,729.4844 L557.1656,728.3906 C557.1656,726.6094 558.4156,725.2969 560.15,725.2969 C560.7281,725.2969 561.3375,725.4531 561.8063,725.7031 C562.2906,725.9844 562.4625,726.2031 562.5563,726.6094 C562.6188,727.0156 562.65,727.1406 562.7906,727.2656 C562.9313,727.4063 563.1656,727.5156 563.3844,727.5156 C563.65,727.5156 563.9156,727.375 564.0875,727.1563 C564.1969,727 564.2281,726.8125 564.2281,726.3906 L564.2281,724.9688 C564.2281,724.5313 564.2125,724.4063 564.1188,724.25 C563.9625,723.9844 563.6813,723.8438 563.3844,723.8438 C563.0875,723.8438 562.8844,723.9375 562.6656,724.25 L562.4938,724.1719 Z " fill="#000000"/><text fill="#000000" font-family="sans-serif" font-size="14" lengthAdjust="spacing" textLength="99" x="578.85" y="733.3467">WorkedModel</text><line style="stroke:#181818;stroke-width:0.5;" x1="525" x2="701" y1="744.5" y2="744.5"/><ellipse cx="535" cy="758.1484" fill="none" rx="3" ry="3" style="stroke:#038048;stroke-width:1.0;"/><text fill="#000000" font-family="sans-serif" font-size="14" lengthAdjust="spacing" textLength="145" x="544" y="761.4951">WorkingDate datum</text><ellipse cx="535" cy="774.4453" fill="none" rx="3" ry="3" style="stroke:#038048;stroke-width:1.0;"/><text fill="#000000" font-family="sans-serif" font-size="14" lengthAdjust="spacing" textLength="125" x="544" y="777.792">String hasworked</text><ellipse cx="535" cy="790.7422" fill="none" rx="3" ry="3" style="stroke:#038048;stroke-width:1.0;"/><text fill="#000000" font-family="sans-serif" font-size="14" lengthAdjust="spacing" textLength="94" x="544" y="794.0889">int hashCode</text><line style="stroke:#181818;stroke-width:0.5;" x1="525" x2="701" y1="801.3906" y2="801.3906"/><ellipse cx="535" cy="815.0391" fill="#84BE84" rx="3" ry="3" style="stroke:#038048;stroke-width:1.0;"/><text fill="#000000" font-family="sans-serif" font-size="14" lengthAdjust="spacing" textLength="152" x="544" y="818.3857">WorkedModel clone()</text><ellipse cx="535" cy="831.3359" fill="#84BE84" rx="3" ry="3" style="stroke:#038048;stroke-width:1.0;"/><text fill="#000000" font-family="sans-serif" font-size="14" lengthAdjust="spacing" textLength="68" x="544" y="834.6826">bool ==()</text></g><!--class WorkingPage--><g id="elem_WorkingPage"><rect codeLine="78" fill="#F1F1F1" height="227.2656" id="WorkingPage" rx="2.5" ry="2.5" style="stroke:#181818;stroke-width:0.5;" width="357" x="999.5" y="408"/><ellipse cx="1126.25" cy="424" fill="#ADD1B2" rx="11" ry="11" style="stroke:#181818;stroke-width:1.0;"/><path d="M1128.5938,419.6719 C1127.6563,419.2344 1127.0625,419.0938 1126.1875,419.0938 C1123.5625,419.0938 1121.5625,421.1719 1121.5625,423.8906 L1121.5625,425.0156 C1121.5625,427.5938 1123.6719,429.4844 1126.5625,429.4844 C1127.7813,429.4844 1128.9375,429.1875 1129.6875,428.6406 C1130.2656,428.2344 1130.5938,427.7813 1130.5938,427.3906 C1130.5938,426.9375 1130.2031,426.5469 1129.7344,426.5469 C1129.5156,426.5469 1129.3125,426.625 1129.125,426.8125 C1128.6719,427.2969 1128.6719,427.2969 1128.4844,427.3906 C1128.0625,427.6563 1127.375,427.7813 1126.6094,427.7813 C1124.5625,427.7813 1123.2656,426.6875 1123.2656,424.9844 L1123.2656,423.8906 C1123.2656,422.1094 1124.5156,420.7969 1126.25,420.7969 C1126.8281,420.7969 1127.4375,420.9531 1127.9063,421.2031 C1128.3906,421.4844 1128.5625,421.7031 1128.6563,422.1094 C1128.7188,422.5156 1128.75,422.6406 1128.8906,422.7656 C1129.0313,422.9063 1129.2656,423.0156 1129.4844,423.0156 C1129.75,423.0156 1130.0156,422.875 1130.1875,422.6563 C1130.2969,422.5 1130.3281,422.3125 1130.3281,421.8906 L1130.3281,420.4688 C1130.3281,420.0313 1130.3125,419.9063 1130.2188,419.75 C1130.0625,419.4844 1129.7813,419.3438 1129.4844,419.3438 C1129.1875,419.3438 1128.9844,419.4375 1128.7656,419.75 L1128.5938,419.6719 Z " fill="#000000"/><text fill="#000000" font-family="sans-serif" font-size="14" lengthAdjust="spacing" textLength="95" x="1146.75" y="428.8467">WorkingPage</text><line style="stroke:#181818;stroke-width:0.5;" x1="1000.5" x2="1355.5" y1="440" y2="440"/><ellipse cx="1010.5" cy="453.6484" fill="none" rx="3" ry="3" style="stroke:#038048;stroke-width:1.0;"/><text fill="#000000" font-family="sans-serif" font-size="14" lengthAdjust="spacing" textLength="140" x="1019.5" y="456.9951">JsonLogin jsonLogin</text><ellipse cx="1010.5" cy="469.9453" fill="none" rx="3" ry="3" style="stroke:#038048;stroke-width:1.0;"/><text fill="#000000" font-family="sans-serif" font-size="14" lengthAdjust="spacing" textLength="102" x="1019.5" y="473.292">bool isStarted</text><ellipse cx="1010.5" cy="486.2422" fill="none" rx="3" ry="3" style="stroke:#038048;stroke-width:1.0;"/><text fill="#000000" font-family="sans-serif" font-size="14" lengthAdjust="spacing" textLength="110" x="1019.5" y="489.5889">bool isStopped</text><ellipse cx="1010.5" cy="502.5391" fill="none" rx="3" ry="3" style="stroke:#038048;stroke-width:1.0;"/><text fill="#000000" font-family="sans-serif" font-size="14" lengthAdjust="spacing" textLength="326" x="1019.5" y="505.8857">TextEditingController workingPageController</text><ellipse cx="1010.5" cy="518.8359" fill="none" rx="3" ry="3" style="stroke:#038048;stroke-width:1.0;"/><text fill="#000000" font-family="sans-serif" font-size="14" lengthAdjust="spacing" textLength="301" x="1019.5" y="522.1826">TextEditingController passwordController</text><ellipse cx="1010.5" cy="535.1328" fill="none" rx="3" ry="3" style="stroke:#038048;stroke-width:1.0;"/><text fill="#000000" font-family="sans-serif" font-size="14" lengthAdjust="spacing" textLength="305" x="1019.5" y="538.4795">TextEditingController startTimeController</text><ellipse cx="1010.5" cy="551.4297" fill="none" rx="3" ry="3" style="stroke:#038048;stroke-width:1.0;"/><text fill="#000000" font-family="sans-serif" font-size="14" lengthAdjust="spacing" textLength="303" x="1019.5" y="554.7764">TextEditingController stopTimeController</text><ellipse cx="1010.5" cy="567.7266" fill="none" rx="3" ry="3" style="stroke:#038048;stroke-width:1.0;"/><text fill="#000000" font-family="sans-serif" font-size="14" lengthAdjust="spacing" textLength="289" x="1019.5" y="571.0732">TextEditingController requestController</text><ellipse cx="1010.5" cy="584.0234" fill="none" rx="3" ry="3" style="stroke:#038048;stroke-width:1.0;"/><text fill="#000000" font-family="sans-serif" font-size="14" lengthAdjust="spacing" textLength="331" x="1019.5" y="587.3701">TextEditingController requestTimerController</text><line style="stroke:#181818;stroke-width:0.5;" x1="1000.5" x2="1355.5" y1="594.6719" y2="594.6719"/><ellipse cx="1010.5" cy="608.3203" fill="#84BE84" rx="3" ry="3" style="stroke:#038048;stroke-width:1.0;"/><text fill="#000000" font-family="sans-serif" font-size="14" lengthAdjust="spacing" textLength="243" x="1019.5" y="611.667">_WorkingPageState createState()</text><ellipse cx="1010.5" cy="624.6172" fill="#84BE84" rx="3" ry="3" style="stroke:#038048;stroke-width:1.0;"/><text fill="#000000" font-family="sans-serif" font-size="14" lengthAdjust="spacing" textLength="147" x="1019.5" y="627.9639">dynamic fetchData()</text></g><!--class _WorkingPageState--><g id="elem__WorkingPageState"><rect codeLine="96" fill="#F1F1F1" height="162.0781" id="_WorkingPageState" rx="2.5" ry="2.5" style="stroke:#181818;stroke-width:0.5;" width="440" x="524" y="440.5"/><ellipse cx="668.75" cy="456.5" fill="#ADD1B2" rx="11" ry="11" style="stroke:#181818;stroke-width:1.0;"/><path d="M671.0938,452.1719 C670.1563,451.7344 669.5625,451.5938 668.6875,451.5938 C666.0625,451.5938 664.0625,453.6719 664.0625,456.3906 L664.0625,457.5156 C664.0625,460.0938 666.1719,461.9844 669.0625,461.9844 C670.2813,461.9844 671.4375,461.6875 672.1875,461.1406 C672.7656,460.7344 673.0938,460.2813 673.0938,459.8906 C673.0938,459.4375 672.7031,459.0469 672.2344,459.0469 C672.0156,459.0469 671.8125,459.125 671.625,459.3125 C671.1719,459.7969 671.1719,459.7969 670.9844,459.8906 C670.5625,460.1563 669.875,460.2813 669.1094,460.2813 C667.0625,460.2813 665.7656,459.1875 665.7656,457.4844 L665.7656,456.3906 C665.7656,454.6094 667.0156,453.2969 668.75,453.2969 C669.3281,453.2969 669.9375,453.4531 670.4063,453.7031 C670.8906,453.9844 671.0625,454.2031 671.1563,454.6094 C671.2188,455.0156 671.25,455.1406 671.3906,455.2656 C671.5313,455.4063 671.7656,455.5156 671.9844,455.5156 C672.25,455.5156 672.5156,455.375 672.6875,455.1563 C672.7969,455 672.8281,454.8125 672.8281,454.3906 L672.8281,452.9688 C672.8281,452.5313 672.8125,452.4063 672.7188,452.25 C672.5625,451.9844 672.2813,451.8438 671.9844,451.8438 C671.6875,451.8438 671.4844,451.9375 671.2656,452.25 L671.0938,452.1719 Z " fill="#000000"/><text fill="#000000" font-family="sans-serif" font-size="14" lengthAdjust="spacing" textLength="142" x="689.25" y="461.3467">_WorkingPageState</text><line style="stroke:#181818;stroke-width:0.5;" x1="525" x2="963" y1="472.5" y2="472.5"/><rect fill="none" height="6" style="stroke:#C82930;stroke-width:1.0;" width="6" x="532" y="483.1484"/><text fill="#000000" font-family="sans-serif" font-size="14" lengthAdjust="spacing" textLength="93" x="544" y="489.4951">Timer _timer</text><rect fill="none" height="6" style="stroke:#C82930;stroke-width:1.0;" width="6" x="532" y="499.4453"/><text fill="#000000" font-family="sans-serif" font-size="14" lengthAdjust="spacing" textLength="144" x="544" y="505.792">String _currentTime</text><ellipse cx="535" cy="518.7422" fill="none" rx="3" ry="3" style="stroke:#038048;stroke-width:1.0;"/><text fill="#000000" font-family="sans-serif" font-size="14" lengthAdjust="spacing" textLength="96" x="544" y="522.0889">dynamic data</text><line style="stroke:#181818;stroke-width:0.5;" x1="525" x2="963" y1="529.3906" y2="529.3906"/><ellipse cx="535" cy="543.0391" fill="#84BE84" rx="3" ry="3" style="stroke:#038048;stroke-width:1.0;"/><text fill="#000000" font-family="sans-serif" font-size="14" lengthAdjust="spacing" textLength="108" x="544" y="546.3857">void initState()</text><ellipse cx="535" cy="559.3359" fill="#84BE84" rx="3" ry="3" style="stroke:#038048;stroke-width:1.0;"/><text fill="#000000" font-family="sans-serif" font-size="14" lengthAdjust="spacing" textLength="99" x="544" y="562.6826">void dispose()</text><ellipse cx="535" cy="575.6328" fill="#84BE84" rx="3" ry="3" style="stroke:#038048;stroke-width:1.0;"/><text fill="#000000" font-family="sans-serif" font-size="14" lengthAdjust="spacing" textLength="101" x="544" y="578.9795">Widget build()</text><rect fill="#F24D5C" height="6" style="stroke:#C82930;stroke-width:1.0;" width="6" x="532" y="588.9297"/><text fill="#000000" font-family="sans-serif" font-size="14" lengthAdjust="spacing" textLength="414" x="544" y="595.2764">List&lt;Dayandworkedtime&gt; _convertInfoFromWebSocket()</text></g><!--class TextEditingController--><g id="elem_TextEditingController"><rect fill="#F1F1F1" height="48" id="TextEditingController" rx="2.5" ry="2.5" style="stroke:#181818;stroke-width:0.5;" width="189" x="2151.5" y="170"/><ellipse cx="2166.5" cy="186" fill="#ADD1B2" rx="11" ry="11" style="stroke:#181818;stroke-width:1.0;"/><path d="M2168.8438,181.6719 C2167.9063,181.2344 2167.3125,181.0938 2166.4375,181.0938 C2163.8125,181.0938 2161.8125,183.1719 2161.8125,185.8906 L2161.8125,187.0156 C2161.8125,189.5938 2163.9219,191.4844 2166.8125,191.4844 C2168.0313,191.4844 2169.1875,191.1875 2169.9375,190.6406 C2170.5156,190.2344 2170.8438,189.7813 2170.8438,189.3906 C2170.8438,188.9375 2170.4531,188.5469 2169.9844,188.5469 C2169.7656,188.5469 2169.5625,188.625 2169.375,188.8125 C2168.9219,189.2969 2168.9219,189.2969 2168.7344,189.3906 C2168.3125,189.6563 2167.625,189.7813 2166.8594,189.7813 C2164.8125,189.7813 2163.5156,188.6875 2163.5156,186.9844 L2163.5156,185.8906 C2163.5156,184.1094 2164.7656,182.7969 2166.5,182.7969 C2167.0781,182.7969 2167.6875,182.9531 2168.1563,183.2031 C2168.6406,183.4844 2168.8125,183.7031 2168.9063,184.1094 C2168.9688,184.5156 2169,184.6406 2169.1406,184.7656 C2169.2813,184.9063 2169.5156,185.0156 2169.7344,185.0156 C2170,185.0156 2170.2656,184.875 2170.4375,184.6563 C2170.5469,184.5 2170.5781,184.3125 2170.5781,183.8906 L2170.5781,182.4688 C2170.5781,182.0313 2170.5625,181.9063 2170.4688,181.75 C2170.3125,181.4844 2170.0313,181.3438 2169.7344,181.3438 C2169.4375,181.3438 2169.2344,181.4375 2169.0156,181.75 L2168.8438,181.6719 Z " fill="#000000"/><text fill="#000000" font-family="sans-serif" font-size="14" lengthAdjust="spacing" textLength="157" x="2180.5" y="190.8467">TextEditingController</text><line style="stroke:#181818;stroke-width:0.5;" x1="2152.5" x2="2339.5" y1="202" y2="202"/><line style="stroke:#181818;stroke-width:0.5;" x1="2152.5" x2="2339.5" y1="210" y2="210"/></g><!--class StatefulWidget--><g id="elem_StatefulWidget"><rect fill="#F1F1F1" height="48" id="StatefulWidget" rx="2.5" ry="2.5" style="stroke:#181818;stroke-width:0.5;" width="142" x="1714" y="170"/><ellipse cx="1729" cy="186" fill="#ADD1B2" rx="11" ry="11" style="stroke:#181818;stroke-width:1.0;"/><path d="M1731.3438,181.6719 C1730.4063,181.2344 1729.8125,181.0938 1728.9375,181.0938 C1726.3125,181.0938 1724.3125,183.1719 1724.3125,185.8906 L1724.3125,187.0156 C1724.3125,189.5938 1726.4219,191.4844 1729.3125,191.4844 C1730.5313,191.4844 1731.6875,191.1875 1732.4375,190.6406 C1733.0156,190.2344 1733.3438,189.7813 1733.3438,189.3906 C1733.3438,188.9375 1732.9531,188.5469 1732.4844,188.5469 C1732.2656,188.5469 1732.0625,188.625 1731.875,188.8125 C1731.4219,189.2969 1731.4219,189.2969 1731.2344,189.3906 C1730.8125,189.6563 1730.125,189.7813 1729.3594,189.7813 C1727.3125,189.7813 1726.0156,188.6875 1726.0156,186.9844 L1726.0156,185.8906 C1726.0156,184.1094 1727.2656,182.7969 1729,182.7969 C1729.5781,182.7969 1730.1875,182.9531 1730.6563,183.2031 C1731.1406,183.4844 1731.3125,183.7031 1731.4063,184.1094 C1731.4688,184.5156 1731.5,184.6406 1731.6406,184.7656 C1731.7813,184.9063 1732.0156,185.0156 1732.2344,185.0156 C1732.5,185.0156 1732.7656,184.875 1732.9375,184.6563 C1733.0469,184.5 1733.0781,184.3125 1733.0781,183.8906 L1733.0781,182.4688 C1733.0781,182.0313 1733.0625,181.9063 1732.9688,181.75 C1732.8125,181.4844 1732.5313,181.3438 1732.2344,181.3438 C1731.9375,181.3438 1731.7344,181.4375 1731.5156,181.75 L1731.3438,181.6719 Z " fill="#000000"/><text fill="#000000" font-family="sans-serif" font-size="14" lengthAdjust="spacing" textLength="110" x="1743" y="190.8467">StatefulWidget</text><line style="stroke:#181818;stroke-width:0.5;" x1="1715" x2="1855" y1="202" y2="202"/><line style="stroke:#181818;stroke-width:0.5;" x1="1715" x2="1855" y1="210" y2="210"/></g><!--class GlobalKey<FormState>--><g id="elem_GlobalKey&lt;FormState&gt;"><rect fill="#F1F1F1" height="48" id="GlobalKey&lt;FormState&gt;" rx="2.5" ry="2.5" style="stroke:#181818;stroke-width:0.5;" width="204" x="1891" y="170"/><ellipse cx="1906" cy="186" fill="#ADD1B2" rx="11" ry="11" style="stroke:#181818;stroke-width:1.0;"/><path d="M1908.3438,181.6719 C1907.4063,181.2344 1906.8125,181.0938 1905.9375,181.0938 C1903.3125,181.0938 1901.3125,183.1719 1901.3125,185.8906 L1901.3125,187.0156 C1901.3125,189.5938 1903.4219,191.4844 1906.3125,191.4844 C1907.5313,191.4844 1908.6875,191.1875 1909.4375,190.6406 C1910.0156,190.2344 1910.3438,189.7813 1910.3438,189.3906 C1910.3438,188.9375 1909.9531,188.5469 1909.4844,188.5469 C1909.2656,188.5469 1909.0625,188.625 1908.875,188.8125 C1908.4219,189.2969 1908.4219,189.2969 1908.2344,189.3906 C1907.8125,189.6563 1907.125,189.7813 1906.3594,189.7813 C1904.3125,189.7813 1903.0156,188.6875 1903.0156,186.9844 L1903.0156,185.8906 C1903.0156,184.1094 1904.2656,182.7969 1906,182.7969 C1906.5781,182.7969 1907.1875,182.9531 1907.6563,183.2031 C1908.1406,183.4844 1908.3125,183.7031 1908.4063,184.1094 C1908.4688,184.5156 1908.5,184.6406 1908.6406,184.7656 C1908.7813,184.9063 1909.0156,185.0156 1909.2344,185.0156 C1909.5,185.0156 1909.7656,184.875 1909.9375,184.6563 C1910.0469,184.5 1910.0781,184.3125 1910.0781,183.8906 L1910.0781,182.4688 C1910.0781,182.0313 1910.0625,181.9063 1909.9688,181.75 C1909.8125,181.4844 1909.5313,181.3438 1909.2344,181.3438 C1908.9375,181.3438 1908.7344,181.4375 1908.5156,181.75 L1908.3438,181.6719 Z " fill="#000000"/><text fill="#000000" font-family="sans-serif" font-size="14" lengthAdjust="spacing" textLength="172" x="1920" y="190.8467">GlobalKey&lt;FormState&gt;</text><line style="stroke:#181818;stroke-width:0.5;" x1="1892" x2="2094" y1="202" y2="202"/><line style="stroke:#181818;stroke-width:0.5;" x1="1892" x2="2094" y1="210" y2="210"/></g><!--class State--><g id="elem_State"><rect fill="#F1F1F1" height="48" id="State" rx="2.5" ry="2.5" style="stroke:#181818;stroke-width:0.5;" width="72" x="1607" y="170"/><ellipse cx="1622" cy="186" fill="#ADD1B2" rx="11" ry="11" style="stroke:#181818;stroke-width:1.0;"/><path d="M1624.3438,181.6719 C1623.4063,181.2344 1622.8125,181.0938 1621.9375,181.0938 C1619.3125,181.0938 1617.3125,183.1719 1617.3125,185.8906 L1617.3125,187.0156 C1617.3125,189.5938 1619.4219,191.4844 1622.3125,191.4844 C1623.5313,191.4844 1624.6875,191.1875 1625.4375,190.6406 C1626.0156,190.2344 1626.3438,189.7813 1626.3438,189.3906 C1626.3438,188.9375 1625.9531,188.5469 1625.4844,188.5469 C1625.2656,188.5469 1625.0625,188.625 1624.875,188.8125 C1624.4219,189.2969 1624.4219,189.2969 1624.2344,189.3906 C1623.8125,189.6563 1623.125,189.7813 1622.3594,189.7813 C1620.3125,189.7813 1619.0156,188.6875 1619.0156,186.9844 L1619.0156,185.8906 C1619.0156,184.1094 1620.2656,182.7969 1622,182.7969 C1622.5781,182.7969 1623.1875,182.9531 1623.6563,183.2031 C1624.1406,183.4844 1624.3125,183.7031 1624.4063,184.1094 C1624.4688,184.5156 1624.5,184.6406 1624.6406,184.7656 C1624.7813,184.9063 1625.0156,185.0156 1625.2344,185.0156 C1625.5,185.0156 1625.7656,184.875 1625.9375,184.6563 C1626.0469,184.5 1626.0781,184.3125 1626.0781,183.8906 L1626.0781,182.4688 C1626.0781,182.0313 1626.0625,181.9063 1625.9688,181.75 C1625.8125,181.4844 1625.5313,181.3438 1625.2344,181.3438 C1624.9375,181.3438 1624.7344,181.4375 1624.5156,181.75 L1624.3438,181.6719 Z " fill="#000000"/><text fill="#000000" font-family="sans-serif" font-size="14" lengthAdjust="spacing" textLength="40" x="1636" y="190.8467">State</text><line style="stroke:#181818;stroke-width:0.5;" x1="1608" x2="1678" y1="202" y2="202"/><line style="stroke:#181818;stroke-width:0.5;" x1="1608" x2="1678" y1="210" y2="210"/></g><!--class FTableRow--><g id="elem_FTableRow"><rect fill="#F1F1F1" height="48" id="FTableRow" rx="2.5" ry="2.5" style="stroke:#181818;stroke-width:0.5;" width="110" x="286" y="497.5"/><ellipse cx="301" cy="513.5" fill="#ADD1B2" rx="11" ry="11" style="stroke:#181818;stroke-width:1.0;"/><path d="M303.3438,509.1719 C302.4063,508.7344 301.8125,508.5938 300.9375,508.5938 C298.3125,508.5938 296.3125,510.6719 296.3125,513.3906 L296.3125,514.5156 C296.3125,517.0938 298.4219,518.9844 301.3125,518.9844 C302.5313,518.9844 303.6875,518.6875 304.4375,518.1406 C305.0156,517.7344 305.3438,517.2813 305.3438,516.8906 C305.3438,516.4375 304.9531,516.0469 304.4844,516.0469 C304.2656,516.0469 304.0625,516.125 303.875,516.3125 C303.4219,516.7969 303.4219,516.7969 303.2344,516.8906 C302.8125,517.1563 302.125,517.2813 301.3594,517.2813 C299.3125,517.2813 298.0156,516.1875 298.0156,514.4844 L298.0156,513.3906 C298.0156,511.6094 299.2656,510.2969 301,510.2969 C301.5781,510.2969 302.1875,510.4531 302.6563,510.7031 C303.1406,510.9844 303.3125,511.2031 303.4063,511.6094 C303.4688,512.0156 303.5,512.1406 303.6406,512.2656 C303.7813,512.4063 304.0156,512.5156 304.2344,512.5156 C304.5,512.5156 304.7656,512.375 304.9375,512.1563 C305.0469,512 305.0781,511.8125 305.0781,511.3906 L305.0781,509.9688 C305.0781,509.5313 305.0625,509.4063 304.9688,509.25 C304.8125,508.9844 304.5313,508.8438 304.2344,508.8438 C303.9375,508.8438 303.7344,508.9375 303.5156,509.25 L303.3438,509.1719 Z " fill="#000000"/><text fill="#000000" font-family="sans-serif" font-size="14" lengthAdjust="spacing" textLength="78" x="315" y="518.3467">FTableRow</text><line style="stroke:#181818;stroke-width:0.5;" x1="287" x2="395" y1="529.5" y2="529.5"/><line style="stroke:#181818;stroke-width:0.5;" x1="287" x2="395" y1="537.5" y2="537.5"/></g><!--class FCloneable--><g id="elem_FCloneable"><rect fill="#F1F1F1" height="48" id="FCloneable" rx="2.5" ry="2.5" style="stroke:#181818;stroke-width:0.5;" width="112" x="70" y="497.5"/><ellipse cx="85" cy="513.5" fill="#ADD1B2" rx="11" ry="11" style="stroke:#181818;stroke-width:1.0;"/><path d="M87.3438,509.1719 C86.4063,508.7344 85.8125,508.5938 84.9375,508.5938 C82.3125,508.5938 80.3125,510.6719 80.3125,513.3906 L80.3125,514.5156 C80.3125,517.0938 82.4219,518.9844 85.3125,518.9844 C86.5313,518.9844 87.6875,518.6875 88.4375,518.1406 C89.0156,517.7344 89.3438,517.2813 89.3438,516.8906 C89.3438,516.4375 88.9531,516.0469 88.4844,516.0469 C88.2656,516.0469 88.0625,516.125 87.875,516.3125 C87.4219,516.7969 87.4219,516.7969 87.2344,516.8906 C86.8125,517.1563 86.125,517.2813 85.3594,517.2813 C83.3125,517.2813 82.0156,516.1875 82.0156,514.4844 L82.0156,513.3906 C82.0156,511.6094 83.2656,510.2969 85,510.2969 C85.5781,510.2969 86.1875,510.4531 86.6563,510.7031 C87.1406,510.9844 87.3125,511.2031 87.4063,511.6094 C87.4688,512.0156 87.5,512.1406 87.6406,512.2656 C87.7813,512.4063 88.0156,512.5156 88.2344,512.5156 C88.5,512.5156 88.7656,512.375 88.9375,512.1563 C89.0469,512 89.0781,511.8125 89.0781,511.3906 L89.0781,509.9688 C89.0781,509.5313 89.0625,509.4063 88.9688,509.25 C88.8125,508.9844 88.5313,508.8438 88.2344,508.8438 C87.9375,508.8438 87.7344,508.9375 87.5156,509.25 L87.3438,509.1719 Z " fill="#000000"/><text fill="#000000" font-family="sans-serif" font-size="14" lengthAdjust="spacing" textLength="80" x="99" y="518.3467">FCloneable</text><line style="stroke:#181818;stroke-width:0.5;" x1="71" x2="181" y1="529.5" y2="529.5"/><line style="stroke:#181818;stroke-width:0.5;" x1="71" x2="181" y1="537.5" y2="537.5"/></g><!--class Timer--><g id="elem_Timer"><rect fill="#F1F1F1" height="48" id="Timer" rx="2.5" ry="2.5" style="stroke:#181818;stroke-width:0.5;" width="74" x="2731" y="753"/><ellipse cx="2746" cy="769" fill="#ADD1B2" rx="11" ry="11" style="stroke:#181818;stroke-width:1.0;"/><path d="M2748.3438,764.6719 C2747.4063,764.2344 2746.8125,764.0938 2745.9375,764.0938 C2743.3125,764.0938 2741.3125,766.1719 2741.3125,768.8906 L2741.3125,770.0156 C2741.3125,772.5938 2743.4219,774.4844 2746.3125,774.4844 C2747.5313,774.4844 2748.6875,774.1875 2749.4375,773.6406 C2750.0156,773.2344 2750.3438,772.7813 2750.3438,772.3906 C2750.3438,771.9375 2749.9531,771.5469 2749.4844,771.5469 C2749.2656,771.5469 2749.0625,771.625 2748.875,771.8125 C2748.4219,772.2969 2748.4219,772.2969 2748.2344,772.3906 C2747.8125,772.6563 2747.125,772.7813 2746.3594,772.7813 C2744.3125,772.7813 2743.0156,771.6875 2743.0156,769.9844 L2743.0156,768.8906 C2743.0156,767.1094 2744.2656,765.7969 2746,765.7969 C2746.5781,765.7969 2747.1875,765.9531 2747.6563,766.2031 C2748.1406,766.4844 2748.3125,766.7031 2748.4063,767.1094 C2748.4688,767.5156 2748.5,767.6406 2748.6406,767.7656 C2748.7813,767.9063 2749.0156,768.0156 2749.2344,768.0156 C2749.5,768.0156 2749.7656,767.875 2749.9375,767.6563 C2750.0469,767.5 2750.0781,767.3125 2750.0781,766.8906 L2750.0781,765.4688 C2750.0781,765.0313 2750.0625,764.9063 2749.9688,764.75 C2749.8125,764.4844 2749.5313,764.3438 2749.2344,764.3438 C2748.9375,764.3438 2748.7344,764.4375 2748.5156,764.75 L2748.3438,764.6719 Z " fill="#000000"/><text fill="#000000" font-family="sans-serif" font-size="14" lengthAdjust="spacing" textLength="42" x="2760" y="773.8467">Timer</text><line style="stroke:#181818;stroke-width:0.5;" x1="2732" x2="2804" y1="785" y2="785"/><line style="stroke:#181818;stroke-width:0.5;" x1="2732" x2="2804" y1="793" y2="793"/></g><!--reverse link Dayandworkedtime to WorkingDate--><g id="link_Dayandworkedtime_WorkingDate"><path codeLine="16" d="M1196,839.176 C1196,859.31 1196,881.577 1196,901.283 " fill="none" id="Dayandworkedtime-backto-WorkingDate" style="stroke:#181818;stroke-width:1.0;"/><polygon fill="none" points="1196,825.969,1192,831.969,1196,837.969,1200,831.969,1196,825.969" style="stroke:#181818;stroke-width:1.0;"/></g><!--reverse link LogIn to TextEditingController--><g id="link_LogIn_TextEditingController"><path codeLine="32" d="M2417.72,453.776 C2369.06,380.45 2293.54,266.639 2261.36,218.148 " fill="none" id="LogIn-backto-TextEditingController" style="stroke:#181818;stroke-width:1.0;"/><polygon fill="none" points="2424.99,464.735,2425.0047,457.5239,2418.354,454.7368,2418.3393,461.9479,2424.99,464.735" style="stroke:#181818;stroke-width:1.0;"/></g><!--reverse link StatefulWidget to LogIn--><g id="link_StatefulWidget_LogIn"><path codeLine="33" d="M1803.76,236.542 C1818.57,263.912 1842.08,297.616 1874,314 C1914.04,334.552 2237.96,303.529 2279,322 C2344.61,351.527 2397.33,417.011 2429.04,464.717 " fill="none" id="StatefulWidget-backto-LogIn" style="stroke:#181818;stroke-width:1.0;"/><polygon fill="none" points="1797.41,239.5,1794.71,218.484,1809.93,233.225,1797.41,239.5" style="stroke:#181818;stroke-width:1.0;"/></g><!--reverse link _LogInState to GlobalKey<FormState>--><g id="link__LogInState_GlobalKey&lt;FormState&gt;"><path codeLine="42" d="M2098.18,452.417 C2068.2,379.05 2022.15,266.34 2002.46,218.148 " fill="none" id="_LogInState-backto-GlobalKey&lt;FormState&gt;" style="stroke:#181818;stroke-width:1.0;"/><polygon fill="none" points="2103.21,464.735,2104.6444,457.668,2098.6728,453.6258,2097.2383,460.6928,2103.21,464.735" style="stroke:#181818;stroke-width:1.0;"/></g><!--reverse link State to _LogInState--><g id="link_State__LogInState"><path codeLine="43" d="M1650.6,237.81 C1657.75,264.499 1671.38,296.915 1697,314 C1720.4,329.606 1924.54,310.058 1950,322 C2014.01,352.017 2064.53,417.404 2094.73,464.953 " fill="none" id="State-backto-_LogInState" style="stroke:#181818;stroke-width:1.0;"/><polygon fill="none" points="1643.71,239.085,1646.14,218.035,1657.37,236.008,1643.71,239.085" style="stroke:#181818;stroke-width:1.0;"/></g><!--reverse link StatefulWidget to TimeRecording--><g id="link_StatefulWidget_TimeRecording"><path codeLine="49" d="M1785,238.274 C1785,304.88 1785,430.927 1785,489.338 " fill="none" id="StatefulWidget-backto-TimeRecording" style="stroke:#181818;stroke-width:1.0;"/><polygon fill="none" points="1778,238.148,1785,218.148,1792,238.148,1778,238.148" style="stroke:#181818;stroke-width:1.0;"/></g><!--reverse link State to _TimeRecordingState--><g id="link_State__TimeRecordingState"><path codeLine="55" d="M1625.46,236.979 C1597.78,303.233 1544.58,430.546 1520.02,489.338 " fill="none" id="State-backto-_TimeRecordingState" style="stroke:#181818;stroke-width:1.0;"/><polygon fill="none" points="1619.16,233.904,1633.33,218.148,1632.08,239.301,1619.16,233.904" style="stroke:#181818;stroke-width:1.0;"/></g><!--reverse link FTableRow to FTableRowWorkedModel--><g id="link_FTableRow_FTableRowWorkedModel"><path codeLine="65" d="M373.824,560.636 C404.695,593.449 454.122,638.624 508,659 C551.889,675.598 674.495,652.134 719,667 C748.742,676.935 777.919,694.388 802.896,712.455 " fill="none" id="FTableRow-backto-FTableRowWorkedModel" style="stroke:#181818;stroke-width:1.0;"/><polygon fill="none" points="368.501,565.188,360.221,545.683,378.857,555.767,368.501,565.188" style="stroke:#181818;stroke-width:1.0;"/></g><!--reverse link WorkedModel to WorkingDate--><g id="link_WorkedModel_WorkingDate"><path codeLine="75" d="M690.871,849.257 C699.949,855.402 709.406,860.986 719,865.5 C831.253,918.319 972.029,940.649 1071.47,950.088 " fill="none" id="WorkedModel-backto-WorkingDate" style="stroke:#181818;stroke-width:1.0;"/><polygon fill="none" points="680.001,841.517,682.5681,848.2557,689.7758,848.4779,687.2087,841.7392,680.001,841.517" style="stroke:#181818;stroke-width:1.0;"/></g><!--reverse link FCloneable to WorkedModel--><g id="link_FCloneable_WorkedModel"><path codeLine="76" d="M158.013,560.854 C185.105,591.173 226.395,632.642 270,659 C349.691,707.17 451.879,738.749 523.918,756.819 " fill="none" id="FCloneable-backto-WorkedModel" style="stroke:#181818;stroke-width:1.0;"/><polygon fill="none" points="152.707,565.42,144.85,545.74,163.264,556.225,152.707,565.42" style="stroke:#181818;stroke-width:1.0;"/></g><!--reverse link WorkingPage to JsonLogin--><g id="link_WorkingPage_JsonLogin"><path codeLine="92" d="M1348.35,642.786 C1386.68,669.858 1425.58,697.324 1458.02,720.227 " fill="none" id="WorkingPage-backto-JsonLogin" style="stroke:#181818;stroke-width:1.0;"/><polygon fill="none" points="1337.55,635.165,1340.1436,641.8935,1347.3521,642.0874,1344.7585,635.3588,1337.55,635.165" style="stroke:#181818;stroke-width:1.0;"/></g><!--reverse link WorkingPage to TextEditingController--><g id="link_WorkingPage_TextEditingController"><path codeLine="93" d="M1281.5,398.785 C1314.89,367.876 1354.39,338.712 1397,322 C1433.93,307.516 2073.97,328.228 2111,314 C2161.45,294.613 2205.37,247.084 2228.54,218.302 " fill="none" id="WorkingPage-backto-TextEditingController" style="stroke:#181818;stroke-width:1.0;"/><polygon fill="none" points="1271.79,407.979,1278.8965,406.7554,1280.5003,399.7249,1273.3938,400.9485,1271.79,407.979" style="stroke:#181818;stroke-width:1.0;"/></g><!--reverse link StatefulWidget to WorkingPage--><g id="link_StatefulWidget_WorkingPage"><path codeLine="94" d="M1766.53,236.461 C1751.92,263.793 1728.69,297.486 1697,314 C1667.43,329.409 1427.95,309.585 1397,322 C1350.57,340.627 1307.73,373.859 1272.5,407.869 " fill="none" id="StatefulWidget-backto-WorkingPage" style="stroke:#181818;stroke-width:1.0;"/><polygon fill="none" points="1760.31,233.252,1775.45,218.432,1772.86,239.462,1760.31,233.252" style="stroke:#181818;stroke-width:1.0;"/></g><!--reverse link _WorkingPageState to Timer--><g id="link__WorkingPageState_Timer"><path codeLine="106" d="M867.799,609.265 C903.11,629.532 942.704,648.307 982,659 C1022.37,669.984 1693.23,664.58 1735,667 C2125.67,689.636 2596.27,752.216 2730.58,770.758 " fill="none" id="_WorkingPageState-backto-Timer" style="stroke:#181818;stroke-width:1.0;"/><polygon fill="none" points="856.491,602.641,859.6461,609.1252,866.845,608.7068,863.69,602.2225,856.491,602.641" style="stroke:#181818;stroke-width:1.0;"/></g><!--reverse link State to _WorkingPageState--><g id="link_State__WorkingPageState"><path codeLine="107" d="M1586.56,196.439 C1468.62,201.413 1189.78,223.552 982,322 C921.222,350.798 863.054,398.799 819.437,440.384 " fill="none" id="State-backto-_WorkingPageState" style="stroke:#181818;stroke-width:1.0;"/><polygon fill="none" points="1586.41,189.44,1606.66,195.696,1586.93,203.431,1586.41,189.44" style="stroke:#181818;stroke-width:1.0;"/></g><!--SRC=[pLV1Sjem4Btp5HfExRJq0po4Iz9qqYGpdS2KeqVO2oYH9LUIGscQV-zAieq0uzX9EzCBYDLgzVRjarPeC4JG37HE4vX2JXKrKf4e6WmIJhKcGweMm8p-XH-WbcWgn2gAxhKKdrAgJ1HznU6DN34n94y3GZvCZM9YHGeDoaOEJ1gqPb8ymDOQRvWsumkwfIBTIFK0gM4PJ4XwOD7MzvRcOn_a8qct69Ob4sAatVhT-y5pTx27-vMOvsZ0u1VKW0KGO5vJxRqxmNWD03aQTG0U81nsJpTSvJDbmf0jK5MDCodCklfHflusjhdLGha_wkAgqiKCVfhFAJCOzXmtLP9pKBLCTgRJlZbkWSob-xuBAJaHqioaKw4rnMxVgR7bJ1JWbnktrgW1jglCaXS6_Q98goIADYnTWT5H18YEBZZ41g6MonfH3mUdGYmLvcsLK2vt69S5dpk78Hd_FgsCOxGzgXBGusip-iBbWl9hs8ulfShSp8J4InnV-yFgCP55mNYADAAb50PPWadMA32wRyvbNkGNZEA-dMdVmzL6_Y5pJV1xyjwTxX3b2wHdj5urmxD-1mcg5zLHtvGOOxmtCsdGwp-GpqbWtHEAznO6OZhKIjyKEYDlGl02Vd_ltieKU1daScPFyPtSp7TJFeydZH5PybnsAdyXJiWQQ0fAUxMx6P_l93mSZvAbfCXJXFITyWAyrTrKs52cc7LWhY6C0mme12v5BG5FMK2TktmESsYdhcFolIayOkwWdPeYEzLGRTD1m_eS5rSBor1r_XLnPsUj5yaBk5xHPNUihu7dMFCeSfX2viyhGr_gUpAEeApQzs5-ewlgpDMFC79VZMhYcCQpeOndlBR8FFUMvbwxsMtn-jRSxAij6fjDDsUPT_LLyAC0RNgusiXgtpyEo6rwGPneVUt2R2bVDs7k7jblsUR_VCkq8-zzE8uAMBvnNAr9R1_Tjj2ZyZwAaq8f44uAON7ntgBrLSu4Cu40d2rbEfUwj1ozZqOd_jx4YHIFeCoLMCfB9RCvBAOoUG3JKqCDMReI-rcgjoBnlLtzrOTG5o1_0000]--></g></svg>